<svg width="29" height="18" viewBox="0 0 29 18" fill="none" xmlns="http://www.w3.org/2000/svg">
<path d="M28.2942 1.58517C28.1101 1.47756 27.8825 1.47336 27.6946 1.57443L21.1346 5.10797V2.9878C21.1327 1.33844 19.7779 0.00186737 18.1059 0H3.0287C1.35676 0.00186737 0.00189294 1.33844 0 2.9878V14.7849C0.00189294 16.4343 1.35676 17.7709 3.0287 17.7727H18.1059C19.7779 17.7709 21.1327 16.4343 21.1346 14.7849V12.7033L27.6948 16.2368C27.8825 16.3379 28.1103 16.3339 28.2942 16.2263C28.4783 16.1185 28.5909 15.9231 28.5909 15.7123V2.09893C28.5909 1.88791 28.478 1.69277 28.2942 1.58517ZM19.9227 14.7852C19.9217 15.7749 19.1087 16.5767 18.1055 16.5778H3.0287C2.02544 16.5767 1.21266 15.7749 1.21148 14.7852V2.9878C1.21266 1.99832 2.02544 1.19629 3.0287 1.19512H18.1059C19.109 1.19629 19.922 1.99832 19.9232 2.9878L19.9227 14.7852ZM27.3794 14.7053L21.1346 11.3417V6.46952L27.3794 3.10614V14.7053Z" fill="#2F3676"/>
</svg>
