<svg width="17" height="16" viewBox="0 0 17 16" fill="none" xmlns="http://www.w3.org/2000/svg">
<path d="M12.1097 4.01758C11.2038 4.01758 10.4668 4.7546 10.4668 5.66048C10.4668 6.56635 11.2038 7.30337 12.1097 7.30337C13.0156 7.30337 13.7526 6.56639 13.7526 5.66048C13.7526 4.75453 13.0156 4.01758 12.1097 4.01758ZM12.1097 6.66581C11.5553 6.66581 11.1044 6.21484 11.1044 5.66048C11.1044 5.10612 11.5553 4.65514 12.1097 4.65514C12.664 4.65514 13.115 5.10612 13.115 5.66048C13.115 6.21477 12.6641 6.66581 12.1097 6.66581Z" fill="#2F3676"/>
<path d="M12.1211 14.2222C12.1131 14.2028 12.1032 14.1843 12.0917 14.1671C12.0803 14.1496 12.0669 14.1333 12.0522 14.1186C12.0376 14.104 12.0213 14.0906 12.0038 14.0791C11.9865 14.0676 11.9681 14.0577 11.9486 14.0498C11.9295 14.0418 11.9094 14.0354 11.889 14.0316C11.8479 14.0233 11.8058 14.0233 11.7647 14.0316C11.7443 14.0354 11.7242 14.0418 11.7051 14.0498C11.6856 14.0577 11.6671 14.0676 11.6499 14.0791C11.6324 14.0906 11.6161 14.104 11.6015 14.1186C11.5868 14.1333 11.5734 14.1496 11.5619 14.1671C11.5505 14.1843 11.5406 14.2028 11.5326 14.2222C11.5246 14.2414 11.5183 14.2614 11.5144 14.2818C11.5103 14.3023 11.5081 14.3233 11.5081 14.344C11.5081 14.3647 11.5103 14.3858 11.5144 14.4062C11.5183 14.4266 11.5246 14.4467 11.5326 14.4658C11.5406 14.4852 11.5505 14.5037 11.5619 14.5209C11.5734 14.5385 11.5868 14.5547 11.6015 14.5694C11.6088 14.5767 11.6165 14.5837 11.6245 14.5903C11.6326 14.5969 11.6411 14.6032 11.6499 14.6089C11.6671 14.6204 11.6856 14.6303 11.7051 14.6382C11.7242 14.6462 11.7443 14.6526 11.7647 14.6564C11.7851 14.6606 11.8061 14.6628 11.8268 14.6628C11.8476 14.6628 11.8686 14.6606 11.889 14.6564C11.9094 14.6526 11.9295 14.6462 11.9486 14.6382C11.9681 14.6303 11.9865 14.6204 12.0038 14.6089C12.0126 14.6031 12.021 14.5969 12.0292 14.5903C12.0372 14.5837 12.0449 14.5767 12.0522 14.5694C12.0669 14.5547 12.0803 14.5385 12.0917 14.5209C12.1032 14.5037 12.1131 14.4852 12.1211 14.4658C12.129 14.4467 12.1354 14.4266 12.1396 14.4062C12.1437 14.3858 12.1456 14.3647 12.1456 14.344C12.1456 14.3233 12.1437 14.3023 12.1396 14.2818C12.1354 14.2614 12.129 14.2413 12.1211 14.2222Z" fill="#2F3676"/>
<path d="M7.10398 1.607C7.09601 1.58788 7.08613 1.56939 7.07465 1.55185C7.06318 1.53464 7.04979 1.51806 7.03513 1.5034C7.02046 1.48874 7.0042 1.47535 6.98667 1.46387C6.96946 1.45239 6.95097 1.44251 6.93152 1.43454C6.91239 1.42657 6.89231 1.42052 6.87191 1.41637C6.83079 1.40808 6.78871 1.40808 6.74759 1.41637C6.72718 1.42052 6.7071 1.42657 6.68765 1.43454C6.66853 1.44251 6.65004 1.45239 6.63282 1.46387C6.61529 1.47535 6.59903 1.48874 6.58437 1.5034C6.56971 1.51806 6.55632 1.53464 6.54452 1.55185C6.53305 1.56939 6.52348 1.58788 6.51551 1.607C6.50754 1.62613 6.50117 1.64621 6.49734 1.66661C6.4932 1.68734 6.49097 1.70806 6.49097 1.7291C6.49097 1.74982 6.4932 1.77054 6.49734 1.79126C6.50117 1.81166 6.50754 1.83174 6.51551 1.85087C6.52348 1.87 6.53305 1.88849 6.54452 1.90602C6.55632 1.92323 6.56971 1.93981 6.58437 1.95447C6.59903 1.96914 6.61529 1.98253 6.63282 1.994C6.65004 2.00548 6.66853 2.01536 6.68765 2.02333C6.7071 2.0313 6.72718 2.03736 6.74759 2.0415C6.76799 2.04564 6.78903 2.04788 6.80975 2.04788C6.83047 2.04788 6.85151 2.04564 6.87191 2.0415C6.89231 2.03736 6.91239 2.0313 6.93152 2.02333C6.95097 2.01536 6.96946 2.00548 6.98667 1.994C7.0042 1.98253 7.02046 1.96914 7.03513 1.95447C7.04979 1.93981 7.06318 1.92323 7.07465 1.90602C7.08613 1.88849 7.09601 1.87 7.10398 1.85087C7.11195 1.83174 7.11833 1.81166 7.12215 1.79126C7.1263 1.77054 7.12853 1.74982 7.12853 1.7291C7.12853 1.70806 7.1263 1.68734 7.12215 1.66661C7.11833 1.64621 7.11195 1.62613 7.10398 1.607Z" fill="#2F3676"/>
<path d="M14.5405 1.41137C14.3493 0.603292 13.6224 6.1671e-10 12.7567 6.1671e-10H2.7548C1.23582 -3.18774e-05 0 1.23578 0 2.75477V12.7567C0 13.75 0.794305 14.5608 1.78109 14.5886C1.97223 15.3967 2.69918 16 3.56486 16H14.4882C15.4991 16 16.3216 15.1776 16.3216 14.1667V11.7612V3.2433C16.3216 2.24998 15.5272 1.4392 14.5405 1.41137ZM15.684 14.1668C15.684 14.8261 15.1476 15.3625 14.4882 15.3625H3.56486C3.05449 15.3625 2.61802 15.041 2.44673 14.59C2.39672 14.4583 2.36911 14.3158 2.36911 14.1668V13.9524V12.4756L6.02632 6.27452C6.13767 6.08574 6.33624 5.97551 6.55409 5.97901C6.77325 5.98277 6.96666 6.09989 7.07147 6.29241L8.64612 9.18381L10.935 13.3867C10.9928 13.4929 11.1023 13.5531 11.2152 13.5531C11.2667 13.5531 11.319 13.5405 11.3674 13.5142C11.522 13.43 11.5791 13.2364 11.4949 13.0818L10.7522 11.7179C11.0783 11.7329 11.399 11.6273 11.6545 11.4154L13.0881 10.2262C13.318 10.0354 13.6574 10.0438 13.8777 10.2457L13.9525 10.3143L14.5901 10.8987L15.684 11.9015V14.1668ZM15.684 11.0366L14.59 10.0338L13.9525 9.5483C13.5371 9.37457 13.0432 9.43501 12.681 9.73542L11.2474 10.9247C11.0897 11.0555 10.8839 11.1083 10.6826 11.0697C10.4814 11.031 10.3098 10.9056 10.2118 10.7257L9.20602 8.87883L8.6444 7.84754V7.84751L7.63141 5.98743C7.41534 5.59071 7.01667 5.34923 6.56499 5.34152C6.11344 5.33444 5.70665 5.56151 5.47716 5.95061L2.36908 11.2205V3.2433C2.36908 2.58397 2.90549 2.04756 3.56482 2.04756H5.53463C5.71069 2.04756 5.85341 1.90484 5.85341 1.72878C5.85341 1.55272 5.71069 1.41 5.53463 1.41H3.56482C2.55394 1.41 1.73152 2.23242 1.73152 3.2433V12.3885V13.9478C1.11968 13.8959 0.637561 13.3817 0.637561 12.7567V2.75477C0.637561 1.5873 1.58737 0.637529 2.7548 0.637529H12.7567C13.2671 0.637529 13.7035 0.959019 13.8748 1.41003H8.08487C7.90881 1.41003 7.76609 1.55275 7.76609 1.72881C7.76609 1.90487 7.90881 2.04759 8.08487 2.04759H13.9524L14.59 2.05224C15.2019 2.10408 15.684 2.61827 15.684 3.2433V11.0366Z" fill="#2F3676"/>
</svg>
