<svg width="14" height="15" viewBox="0 0 14 15" fill="none" xmlns="http://www.w3.org/2000/svg">
<path d="M3.67326 15C2.68836 15 1.76503 14.6101 1.07323 13.902C0.381424 13.1939 0 12.2496 0 11.2419C0 10.2346 0.381146 9.28995 1.07323 8.58218L8.67775 0.802128C9.76574 -0.310407 11.4564 -0.260524 12.6101 0.919853C13.7639 2.10023 13.8135 3.8296 12.7255 4.943L5.5815 12.2519C4.91087 12.938 3.8187 12.9391 3.14696 12.2519C2.47578 11.5649 2.47605 10.4475 3.14696 9.76113L7.98623 4.81016C8.1495 4.64313 8.4139 4.64313 8.57717 4.81016C8.74044 4.9772 8.74044 5.24771 8.57717 5.41475L3.7379 10.3657C3.3927 10.7189 3.3927 11.2938 3.7379 11.6473C4.08366 12.0005 4.64535 11.9999 4.99056 11.6473L12.1345 4.33841C12.8854 3.56993 12.8361 2.36019 12.0192 1.52444C11.2023 0.68868 10.0198 0.638227 9.26869 1.40671L1.66417 9.18677C1.13006 9.7332 0.835846 10.4632 0.835846 11.2419C0.835846 12.021 1.13006 12.751 1.66417 13.2974C2.19827 13.8439 2.91181 14.1449 3.67326 14.1449C4.43444 14.1449 5.14797 13.8439 5.68208 13.2974L13.2866 5.51736C13.4499 5.35033 13.7143 5.35033 13.8775 5.51736C14.0408 5.6844 14.0408 5.95491 13.8775 6.12195L6.27302 13.902C5.58122 14.6098 4.65789 15 3.67326 15Z" fill="#2F3676"/>
</svg>
