<svg width="20" height="35" viewBox="0 0 20 35" fill="none" xmlns="http://www.w3.org/2000/svg">
<path d="M18.7069 16.8965C18.3738 16.8965 18.1034 17.1662 18.1034 17.4999V21.1206C18.1034 25.7792 14.3138 29.5689 9.65517 29.5689C4.99655 29.5689 1.2069 25.7792 1.2069 21.1206V17.4999C1.2069 17.1662 0.936552 16.8965 0.603448 16.8965C0.270345 16.8965 0 17.1662 0 17.4999V21.1206C0 26.2409 4.00931 30.4312 9.05172 30.745V33.793H6.03448C5.70138 33.793 5.43103 34.0628 5.43103 34.3965C5.43103 34.7302 5.70138 34.9999 6.03448 34.9999H13.2759C13.609 34.9999 13.8793 34.7302 13.8793 34.3965C13.8793 34.0628 13.609 33.793 13.2759 33.793H10.2586V30.745C15.301 30.4312 19.3103 26.2403 19.3103 21.1206V17.4999C19.3103 17.1662 19.04 16.8965 18.7069 16.8965Z" fill="#2F3676"/>
<path d="M9.65526 27.7586C13.3152 27.7586 16.2932 24.7806 16.2932 21.1207V6.63793C16.2932 2.97802 13.3152 0 9.65526 0C5.99535 0 3.01733 2.97802 3.01733 6.63793V21.1207C3.01733 24.7806 5.99535 27.7586 9.65526 27.7586ZM4.22423 6.63793C4.22423 3.64302 6.66095 1.2069 9.65526 1.2069C12.6496 1.2069 15.0863 3.64302 15.0863 6.63793V21.1207C15.0863 24.1156 12.6496 26.5517 9.65526 26.5517C6.66095 26.5517 4.22423 24.1156 4.22423 21.1207V6.63793Z" fill="#2F3676"/>
</svg>
