<svg width="57" height="57" viewBox="0 0 57 57" fill="none" xmlns="http://www.w3.org/2000/svg">
<path d="M29.1332 0H23.1968C22.9497 0 22.7495 0.200232 22.7495 0.447308C22.7495 0.694385 22.9497 0.894617 23.1968 0.894617H29.1332C29.3799 0.894617 29.5806 1.09527 29.5806 1.34193V10.3448C29.5806 10.5915 29.3799 10.7921 29.1332 10.7921H16.8259V10.5771C16.8259 9.70448 16.1161 8.99468 15.2435 8.99468C14.371 8.99468 13.6611 9.70454 13.6611 10.5771V10.7921H9.10478C8.85776 10.7921 8.65747 10.9924 8.65747 11.2394C8.65747 11.4865 8.85776 11.6867 9.10478 11.6867H13.6611V19.5694L12.5987 18.3787C11.9429 17.6437 11.0019 17.2222 10.0169 17.2222C9.64982 17.2222 9.3187 17.4106 9.13115 17.7262C8.94359 18.0417 8.93645 18.4227 9.11192 18.7451L10.8933 22.0176C11.3349 22.8288 11.8981 23.5631 12.5674 24.2L14.4658 26.0063V26.9645C14.0015 27.0609 13.6516 27.4731 13.6516 27.9657V29.4527C13.6516 30.0166 14.1103 30.4754 14.6742 30.4754H21.7268C22.2907 30.4754 22.7495 30.0166 22.7495 29.4527V27.9657C22.7495 27.4838 22.4141 27.0798 21.9648 26.9721V25.9778C22.3724 25.4635 23.6365 23.5762 23.6365 19.9506V17.2185C23.6365 16.346 22.9266 15.6362 22.0541 15.6362C21.7625 15.6362 21.4891 15.7155 21.2542 15.8536C21.021 15.2699 20.4499 14.8564 19.7839 14.8564C19.4923 14.8564 19.2189 14.9356 18.984 15.0738C18.7509 14.4901 18.1797 14.0765 17.5137 14.0765C17.2673 14.0765 17.034 14.133 16.8259 14.2339V11.6869H29.1332C29.8731 11.6869 30.475 11.0849 30.475 10.345V1.34187C30.4751 0.601947 29.8732 0 29.1332 0V0ZM17.5138 14.9709C17.893 14.9709 18.2016 15.2794 18.2016 15.6587V16.4386C18.2016 16.6857 18.4018 16.8859 18.6489 16.8859C18.896 16.8859 19.0962 16.6857 19.0962 16.4386C19.0962 16.0594 19.4048 15.7508 19.7841 15.7508C20.1633 15.7508 20.4718 16.0594 20.4718 16.4386V17.2185C20.4718 17.4656 20.6721 17.6658 20.9191 17.6658C21.1662 17.6658 21.3664 17.4656 21.3664 17.2185C21.3664 16.8392 21.675 16.5307 22.0543 16.5307C22.4336 16.5307 22.7421 16.8392 22.7421 17.2185V19.9506C22.7421 23.7934 21.207 25.4917 21.1931 25.5067C21.1142 25.5897 21.0703 25.6999 21.0703 25.8144V26.9429H19.9897C19.7426 26.9429 19.5424 27.1431 19.5424 27.3902C19.5424 27.6373 19.7426 27.8375 19.9897 27.8375H21.7269C21.7975 27.8375 21.855 27.895 21.855 27.9657V29.4527C21.855 29.5234 21.7975 29.5808 21.7269 29.5808H14.6742C14.6035 29.5808 14.5461 29.5234 14.5461 29.4527V27.9657C14.5461 27.895 14.6035 27.8375 14.6742 27.8375H18.2005C18.4476 27.8375 18.6478 27.6373 18.6478 27.3902C18.6478 27.1431 18.4476 26.9429 18.2005 26.9429H15.3604V25.8144C15.3604 25.6919 15.3102 25.5749 15.2214 25.4904L13.1841 23.5518C12.5824 22.9793 12.076 22.3192 11.679 21.5898L9.89761 18.3173C9.85553 18.2045 9.89755 18.1337 10.0168 18.1167C10.7472 18.1167 11.4449 18.4292 11.9311 18.9742L13.7576 21.0211C14.0167 21.326 14.5681 21.1315 14.5556 20.7233V10.5771C14.5556 10.1978 14.8641 9.88924 15.2434 9.88924C15.6226 9.88924 15.9312 10.1978 15.9312 10.5771V15.6587C15.9312 15.9058 16.1314 16.106 16.3785 16.106C16.6256 16.106 16.8258 15.9058 16.8258 15.6587C16.8259 15.2794 17.1345 14.9709 17.5138 14.9709V14.9709Z" fill="#2F3676"/>
<path d="M7.3158 10.7921H1.34187C1.09521 10.7921 0.894557 10.5914 0.894557 10.3448V1.34187C0.894557 1.09521 1.09521 0.894557 1.34187 0.894557H21.4078C21.6549 0.894557 21.8551 0.694325 21.8551 0.447249C21.8551 0.200173 21.6549 0 21.4078 0H1.34187C0.601947 0 0 0.601947 0 1.34187V10.3448C0 11.0846 0.601947 11.6866 1.34187 11.6866H7.3158C7.56282 11.6866 7.76311 11.4864 7.76311 11.2393C7.76311 10.9922 7.56288 10.7921 7.3158 10.7921V10.7921Z" fill="#2F3676"/>
<path d="M18.1809 5.50741C18.4437 5.25129 18.5366 4.87535 18.4231 4.52631C18.3097 4.17727 18.0136 3.92764 17.6504 3.87484L16.609 3.72354C16.5885 3.72056 16.5709 3.70776 16.5617 3.68925L16.0959 2.74547C15.9335 2.41637 15.6046 2.21191 15.2376 2.21191C14.8706 2.21191 14.5416 2.41631 14.3792 2.74547L13.9134 3.68931C13.9042 3.70776 13.8866 3.72062 13.8663 3.72354L12.8246 3.87484C12.4614 3.92764 12.1653 4.17727 12.0519 4.52631C11.9386 4.87535 12.0313 5.25129 12.2941 5.50741L13.0479 6.24215C13.0626 6.25656 13.0694 6.27721 13.0658 6.29757L12.8879 7.33492C12.8259 7.69658 12.9718 8.05532 13.2687 8.27102C13.5656 8.48679 13.9519 8.51471 14.2768 8.34394L15.2084 7.85413C15.2266 7.84449 15.2484 7.84449 15.2666 7.85413L16.1983 8.34394C16.3396 8.41816 16.4925 8.45489 16.6446 8.45489C16.8422 8.45489 17.0386 8.39292 17.2064 8.27102C17.5032 8.05532 17.6491 7.69658 17.587 7.33492L17.4092 6.29757C17.4057 6.27727 17.4124 6.25656 17.4271 6.24215L18.1809 5.50741ZM16.8028 5.60164C16.5771 5.82157 16.4742 6.13829 16.5275 6.44882L16.7054 7.48628C16.7072 7.49676 16.712 7.52462 16.6805 7.54741C16.6491 7.57027 16.6239 7.55706 16.6145 7.55218L15.683 7.06243C15.5434 6.98904 15.3905 6.95243 15.2375 6.95243C15.0845 6.95243 14.9316 6.9891 14.7921 7.06237L13.8605 7.55218C13.8511 7.55706 13.8261 7.57039 13.7945 7.54741C13.763 7.52456 13.7678 7.4967 13.7696 7.48623L13.9475 6.44882C14.0008 6.13823 13.8979 5.82151 13.6723 5.60164L12.9186 4.86696C12.911 4.85952 12.8907 4.83975 12.9027 4.80279C12.9147 4.76577 12.9428 4.76166 12.9532 4.76017L13.9949 4.60887C14.3068 4.56351 14.5761 4.36768 14.7155 4.08525L15.1813 3.14147C15.186 3.13189 15.1985 3.10659 15.2374 3.10659C15.2764 3.10659 15.2888 3.13195 15.2936 3.14147L15.7594 4.08519C15.8987 4.36774 16.1682 4.56351 16.4801 4.60893L17.5217 4.76023C17.5322 4.76178 17.5602 4.76583 17.5722 4.80285C17.5842 4.83981 17.564 4.85958 17.5564 4.86702L16.8028 5.60164Z" fill="#2F3676"/>
<path d="M8.66911 7.33492L8.4912 6.29757C8.48769 6.27727 8.49442 6.25656 8.50924 6.24215L9.2629 5.50741C9.52569 5.25129 9.61849 4.87535 9.5051 4.52631C9.39171 4.17727 9.09565 3.92764 8.73238 3.87484L7.69087 3.72354C7.67045 3.72056 7.65283 3.70776 7.64367 3.68925L7.17785 2.74547C7.01541 2.41637 6.68655 2.21191 6.31954 2.21191C5.95252 2.21191 5.62361 2.41631 5.46117 2.74547L4.99541 3.68925C4.98624 3.70776 4.96856 3.72056 4.94827 3.72354L3.90663 3.87484C3.54343 3.92764 3.24736 4.17727 3.13398 4.52631C3.02059 4.87535 3.11338 5.25129 3.37617 5.50741L4.1299 6.24215C4.14466 6.25656 4.15139 6.27721 4.14787 6.29757L3.96996 7.33492C3.90794 7.69663 4.05383 8.05537 4.35073 8.27102C4.64768 8.48685 5.03392 8.51465 5.35879 8.34394L6.29043 7.85413C6.30864 7.84455 6.33043 7.84455 6.3487 7.85413L7.2804 8.34394C7.42171 8.41816 7.57456 8.45489 7.7267 8.45489C7.92431 8.45489 8.12068 8.39292 8.28847 8.27102C8.58525 8.05532 8.73113 7.69658 8.66911 7.33492V7.33492ZM7.88485 5.60152C7.65914 5.82145 7.55623 6.13817 7.6095 6.44875L7.78741 7.48616C7.7892 7.49664 7.79402 7.5245 7.76253 7.54735C7.7311 7.57033 7.70599 7.557 7.69658 7.55212L6.76494 7.06231C6.62548 6.98898 6.47251 6.95237 6.31954 6.95237C6.16657 6.95237 6.01353 6.98904 5.87413 7.06231L4.94255 7.55212C4.93315 7.557 4.90809 7.57027 4.8766 7.54735C4.84512 7.52456 4.84988 7.49664 4.85172 7.48616L5.02963 6.44875C5.08291 6.13817 4.97999 5.82145 4.75434 5.60158L4.00068 4.86684C3.99306 4.8594 3.97282 4.83963 3.98478 4.80267C3.99681 4.76565 4.02484 4.76154 4.03532 4.76005L5.07701 4.60875C5.38879 4.56339 5.65819 4.36763 5.79765 4.08513L6.26347 3.14135C6.26817 3.13177 6.28067 3.10647 6.3196 3.10647C6.35852 3.10647 6.37102 3.13183 6.37573 3.14135L6.84155 4.08507C6.98095 4.36762 7.25028 4.56339 7.56224 4.60881L8.60382 4.76011C8.61435 4.76166 8.64233 4.76571 8.65435 4.80273C8.66637 4.83969 8.64614 4.85946 8.63852 4.8669L7.88485 5.60152Z" fill="#2F3676"/>
<path d="M27.0999 5.50741C27.3627 5.25129 27.4555 4.87535 27.3421 4.52631C27.2287 4.17727 26.9326 3.92764 26.5694 3.87484L25.5279 3.72354C25.5074 3.72056 25.4898 3.70776 25.4806 3.68925L25.0148 2.74547C24.8524 2.41637 24.5235 2.21191 24.1565 2.21191C23.7895 2.21191 23.4606 2.41631 23.2981 2.74547L22.8324 3.68919C22.8231 3.7077 22.8055 3.72056 22.7852 3.72354L21.7435 3.87484C21.3803 3.92764 21.0843 4.17727 20.9709 4.52637C20.8575 4.87541 20.9503 5.25135 21.2131 5.50741L21.9668 6.24215C21.9815 6.25656 21.9883 6.27721 21.9847 6.29757L21.8069 7.33492C21.7448 7.69664 21.8907 8.05537 22.1876 8.27108C22.4844 8.48685 22.8707 8.51477 23.1956 8.344L24.1273 7.85419C24.1454 7.84467 24.1673 7.84455 24.1855 7.85419L25.1172 8.344C25.2585 8.41822 25.4113 8.45495 25.5635 8.45495C25.7611 8.45495 25.9575 8.39298 26.1253 8.27108C26.4221 8.05537 26.568 7.69664 26.5059 7.33498L26.328 6.29763C26.3245 6.27733 26.3313 6.25662 26.346 6.24221L27.0999 5.50741ZM25.7217 5.60164C25.496 5.82157 25.3931 6.13829 25.4465 6.44881L25.6244 7.48628C25.6261 7.49676 25.6309 7.52462 25.5994 7.54741C25.5681 7.57027 25.5428 7.55706 25.5335 7.55217L24.6019 7.06243C24.4624 6.98904 24.3095 6.95243 24.1565 6.95243C24.0035 6.95243 23.8505 6.9891 23.711 7.06237L22.7794 7.55217C22.7701 7.55706 22.745 7.57033 22.7135 7.54741C22.6821 7.52462 22.6868 7.49676 22.6886 7.48622L22.8664 6.44899C22.9198 6.13841 22.8169 5.82163 22.5912 5.60164L21.8376 4.86684C21.83 4.85946 21.8097 4.83969 21.8217 4.80273C21.8338 4.76571 21.8618 4.7616 21.8723 4.76011L22.914 4.60881C23.2257 4.56345 23.495 4.36768 23.6346 4.08519L24.1004 3.14141C24.1051 3.13183 24.1177 3.10653 24.1566 3.10653C24.1954 3.10653 24.2079 3.13189 24.2126 3.14141L24.6785 4.08513C24.8178 4.36768 25.0873 4.56345 25.3992 4.60887L26.4407 4.76017C26.4513 4.76172 26.4793 4.76577 26.4913 4.80279C26.5033 4.83975 26.483 4.85952 26.4754 4.86696L25.7217 5.60164Z" fill="#2F3676"/>
</svg>
