<svg width="19" height="19" viewBox="0 0 19 19" fill="none" xmlns="http://www.w3.org/2000/svg">
<g clip-path="url(#clip0)">
<path d="M10.6328 0C15.2463 0 19 3.75365 19 8.3672C19 12.981 15.2463 16.7344 10.6328 16.7344C6.01899 16.7344 2.2656 12.981 2.2656 8.3672C2.2656 3.75365 6.01899 0 10.6328 0ZM10.6328 15.1897C14.3947 15.1897 17.4553 12.1291 17.4553 8.36724C17.4553 4.60535 14.3947 1.54471 10.6328 1.54471C6.87091 1.54471 3.81032 4.60531 3.81032 8.3672C3.81032 12.1291 6.87091 15.1897 10.6328 15.1897Z" fill="#9860F7"/>
<path d="M0.226292 17.6816L4.65448 13.2534C4.95622 12.9517 5.44488 12.9517 5.74661 13.2534C6.04835 13.5549 6.04835 14.044 5.74661 14.3455L1.31842 18.7737C1.16757 18.9246 0.970076 19 0.772357 19C0.574898 19 0.377179 18.9246 0.226292 18.7737C-0.0754447 18.4722 -0.0754447 17.9831 0.226292 17.6816Z" fill="#9860F7"/>
</g>
<defs>
<clipPath id="clip0">
<rect width="19" height="19" fill="white" transform="matrix(-1 0 0 1 19 0)"/>
</clipPath>
</defs>
</svg>
