<svg width="36" height="36" viewBox="0 0 36 36" fill="none" xmlns="http://www.w3.org/2000/svg">
<g clip-path="url(#clip0)">
<path d="M30.375 11.25H27V13.5H29.2501V33.75H6.75002V13.5H9.00005V11.25H5.62501C5.00316 11.25 4.5 11.7532 4.5 12.375V34.875C4.5 35.4968 5.00316 36 5.62501 36H30.375C30.9969 36 31.5 35.4968 31.5 34.875V12.375C31.5 11.7532 30.9969 11.25 30.375 11.25V11.25Z" fill="#2F3676"/>
<path d="M16.875 4.30664V20.25H19.125V4.30664L23.9546 9.13623L25.5454 7.54541L18 0L10.4546 7.54541L12.0454 9.13623L16.875 4.30664Z" fill="#2F3676"/>
</g>
<defs>
<clipPath id="clip0">
<rect width="36" height="36" fill="white"/>
</clipPath>
</defs>
</svg>
