<svg width="26" height="26" viewBox="0 0 26 26" fill="none" xmlns="http://www.w3.org/2000/svg">
<path d="M13 0C9.21989 0 6.14453 3.07536 6.14453 6.85547C6.14453 10.6356 9.21989 13.7109 13 13.7109C16.7801 13.7109 19.8555 10.6356 19.8555 6.85547C19.8555 3.07536 16.7801 0 13 0ZM13 12.1875C10.0599 12.1875 7.66797 9.79555 7.66797 6.85547C7.66797 3.91539 10.0599 1.52344 13 1.52344C15.9401 1.52344 18.332 3.91539 18.332 6.85547C18.332 9.79555 15.9401 12.1875 13 12.1875Z" fill="#2F3676"/>
<path d="M15.1243 15.2852H10.8756C7.36145 15.2852 3.89335 16.9077 1.57422 20.3865V26H24.4258V20.3865C22.11 16.9127 18.6429 15.2852 15.1243 15.2852ZM22.9024 24.4766H22.9023H3.09766V20.8527C4.87657 18.3159 7.76709 16.8086 10.8757 16.8086H15.1244C18.233 16.8086 21.1234 18.3159 22.9024 20.8527V24.4766Z" fill="#2F3676"/>
</svg>
